<svg xmlns="http://www.w3.org/2000/svg" width="40" height="39" fill="none" viewBox="0 0 40 39">
  <rect width="40" height="38.151" fill="#000" rx="8"/>
  <path fill="#475569" d="m17.982 20.181.085.061c.317.233.616.474.888.758.09.089.181.169.278.25.189.161.363.334.537.511.836.845 1.685 1.447 2.928 1.478 1.067-.01 1.896-.451 2.651-1.165l.104-.097c.195-.185.356-.374.506-.595.057.161.036.258-.017.419l-.046.138-.051.146-.052.151a6.744 6.744 0 0 1-.538 1.177l-.049.084c-.249.42-.546.769-.89 1.116l-.08.09c-.951 1.029-2.507 1.362-3.853 1.44-1.916.08-3.569-.462-5.029-1.669a6.402 6.402 0 0 1-.25-.244 3.456 3.456 0 0 0-.243-.218c-.277-.236-.53-.497-.784-.756-.784-.796-1.664-1.3-2.808-1.332-1.054.01-1.88.462-2.625 1.165l-.104.097a3.558 3.558 0 0 0-.506.596c-.057-.162-.036-.258.018-.42l.045-.137.051-.147.052-.15c.497-1.403 1.403-2.624 2.77-3.297 2.145-1.005 5.084-.844 7.012.55Z"/>
  <path fill="#64748B" d="M19.504 12.002a37.135 37.135 0 0 1 .463-.002h.122c.574 0 1.135.008 1.694.15l.096.024a6.434 6.434 0 0 1 2.744 1.463c.241.21.47.43.697.656.97.967 1.91 1.876 3.381 1.887.882 0 1.71-.315 2.373-.891l.115-.095a5.53 5.53 0 0 0 .776-.828.515.515 0 0 1-.005.383l-.039.118-.043.125-.046.13c-.241.677-.544 1.306-.993 1.875l-.06.076c-.95 1.195-2.292 1.788-3.798 1.983-.313.03-.628.029-.943.03h-.1c-.551-.002-1.082-.034-1.621-.15l-.105-.023c-1.48-.318-2.631-1.226-3.672-2.264-.902-.9-1.754-1.717-3.121-1.749-1.157-.005-2.032.415-2.857 1.2-.19.194-.36.402-.522.62-.085-.245.025-.455.106-.69.017-.049.034-.098.05-.149.257-.717.61-1.396 1.111-1.977l.106-.123c1.024-1.155 2.54-1.77 4.09-1.779Z"/>
</svg>
